<svg width="31" height="27" viewBox="0 0 31 27" fill="none" xmlns="http://www.w3.org/2000/svg">
<path id="Vector" d="M15.5 0C6.944 0 0 6.048 0 13.5C0 20.952 6.944 27 15.5 27C24.056 27 31 20.952 31 13.5C31 6.048 24.056 0 15.5 0ZM15.5 4.05C18.073 4.05 20.15 5.859 20.15 8.1C20.15 10.341 18.073 12.15 15.5 12.15C12.927 12.15 10.85 10.341 10.85 8.1C10.85 5.859 12.927 4.05 15.5 4.05ZM15.5 23.22C11.625 23.22 8.1995 21.492 6.2 18.873C6.2465 16.1865 12.4 14.715 15.5 14.715C18.5845 14.715 24.7535 16.1865 24.8 18.873C22.8005 21.492 19.375 23.22 15.5 23.22Z" fill="black"/>
</svg>
